# xmcd CD database file
#
# Track frame offsets:
#	150
#	18608
#	39118
#	55688
#	69828
#	91916
#	109679
#	130636
#	148325
#	167188
#	187518
#
# Disc length: 2745 seconds
#
# Revision: 6
# Processed by: cddbd v1.5.2PL0 Copyright (c) Steve Scherf et al.
# Submitted via: CDex 1.51
#
DISCID=840ab70b
DTITLE=B B de Voeux - Blue Lights
DYEAR=1996
DGENRE=Blues
TTITLE0=I`m a fool to want you
TTITLE1=Smoke get in your eyes
TTITLE2=Wonderful World
TTITLE3=Mona Lisa
TTITLE4=Geogia on my mind
TTITLE5=Misty
TTITLE6=As time goes by
TTITLE7=Too young
TTITLE8=For all we know
TTITLE9=Like a lover
TTITLE10=Lover come back
EXTD=YEAR: 1996
EXTT0=
EXTT1=
EXTT2=
EXTT3=
EXTT4=
EXTT5=
EXTT6=
EXTT7=
EXTT8=
EXTT9=
EXTT10=
PLAYORDER=
